<?xml version="1.0" encoding="utf-8"?>
<!-- Generator: Adobe Illustrator 22.0.1, SVG Export Plug-In . SVG Version: 6.00 Build 0)  -->
<svg version="1.2" baseProfile="tiny" id="Layer_1" xmlns="http://www.w3.org/2000/svg" xmlns:xlink="http://www.w3.org/1999/xlink"
	 x="0px" y="0px" viewBox="0 0 139.4 154" xml:space="preserve">
<g>
	<path fill="none" stroke="#0093C1" stroke-width="3" stroke-miterlimit="10" d="M86.6,131.3H9.5c-4.4,0-8-3.6-8-8V9.5
		c0-4.4,3.6-8,8-8h77.1c4.4,0,8,3.6,8,8v113.8C94.6,127.7,91,131.3,86.6,131.3z"/>
	<line fill="none" stroke="#0093C1" stroke-width="3" stroke-miterlimit="10" x1="13.9" y1="48.6" x2="79.7" y2="48.6"/>
	<line fill="none" stroke="#0093C1" stroke-width="3" stroke-miterlimit="10" x1="13.9" y1="34.8" x2="79.7" y2="34.8"/>
	<line fill="none" stroke="#0093C1" stroke-width="3" stroke-miterlimit="10" x1="13.9" y1="20.9" x2="79.7" y2="20.9"/>
	<line fill="none" stroke="#0093C1" stroke-width="3" stroke-miterlimit="10" x1="13.9" y1="61.9" x2="79.7" y2="61.9"/>
	<line fill="none" stroke="#0093C1" stroke-width="3" stroke-miterlimit="10" x1="13.9" y1="75.3" x2="79.7" y2="75.3"/>
	<line fill="none" stroke="#0093C1" stroke-width="3" stroke-miterlimit="10" x1="13.9" y1="88.6" x2="79.7" y2="88.6"/>
	<line fill="none" stroke="#0093C1" stroke-width="3" stroke-miterlimit="10" x1="13.9" y1="101.9" x2="79.7" y2="101.9"/>
	<line fill="none" stroke="#0093C1" stroke-width="3" stroke-miterlimit="10" x1="13.9" y1="115.3" x2="79.7" y2="115.3"/>
	<path fill="#FFFFFF" d="M111.7,144H34.7c-4.4,0-8-3.6-8-8V22.2c0-4.4,3.6-8,8-8h77.1c4.4,0,8,3.6,8,8V136
		C119.7,140.4,116.1,144,111.7,144"/>
	<path fill="none" stroke="#0093C1" stroke-width="3" stroke-miterlimit="10" d="M111.7,144H34.7c-4.4,0-8-3.6-8-8V22.2
		c0-4.4,3.6-8,8-8h77.1c4.4,0,8,3.6,8,8V136C119.7,140.4,116.1,144,111.7,144z"/>
	<line fill="none" stroke="#0093C1" stroke-width="3" stroke-miterlimit="10" x1="39.1" y1="61.3" x2="104.8" y2="61.3"/>
	<line fill="none" stroke="#0093C1" stroke-width="3" stroke-miterlimit="10" x1="39.1" y1="47.5" x2="104.8" y2="47.5"/>
	<line fill="none" stroke="#0093C1" stroke-width="3" stroke-miterlimit="10" x1="39.1" y1="33.6" x2="104.8" y2="33.6"/>
	<line fill="none" stroke="#0093C1" stroke-width="3" stroke-miterlimit="10" x1="39.1" y1="74.6" x2="104.8" y2="74.6"/>
	<line fill="none" stroke="#0093C1" stroke-width="3" stroke-miterlimit="10" x1="39.1" y1="88" x2="104.8" y2="88"/>
	<line fill="none" stroke="#0093C1" stroke-width="3" stroke-miterlimit="10" x1="39.1" y1="101.3" x2="104.8" y2="101.3"/>
	<line fill="none" stroke="#0093C1" stroke-width="3" stroke-miterlimit="10" x1="39.1" y1="114.6" x2="104.8" y2="114.6"/>
	<line fill="none" stroke="#0093C1" stroke-width="3" stroke-miterlimit="10" x1="39.1" y1="128" x2="104.8" y2="128"/>
	<path fill="#FFFFFF" d="M137.9,126.3c0,14.5-11.8,26.3-26.3,26.3c-14.5,0-26.3-11.8-26.3-26.3c0-14.5,11.8-26.3,26.3-26.3
		C126.2,100,137.9,111.8,137.9,126.3"/>
	<circle fill="none" stroke="#0093C1" stroke-width="3" stroke-miterlimit="10" cx="111.7" cy="126.3" r="26.3"/>
	<polyline fill="none" stroke="#0093C1" stroke-width="3" stroke-miterlimit="10" points="97.6,124.8 111.8,110.3 127.8,124.8 	"/>
	<line fill="none" stroke="#0093C1" stroke-width="3" stroke-miterlimit="10" x1="111.8" y1="110.3" x2="111.8" y2="144.2"/>
</g>
</svg>
