<?xml version="1.0" encoding="utf-8"?>
<!-- Generator: Adobe Illustrator 22.0.1, SVG Export Plug-In . SVG Version: 6.00 Build 0)  -->
<svg version="1.2" baseProfile="tiny" id="Layer_1" xmlns="http://www.w3.org/2000/svg" xmlns:xlink="http://www.w3.org/1999/xlink"
	 x="0px" y="0px" viewBox="0 0 133 167.7" xml:space="preserve">
<path fill="none" stroke="#0093C1" stroke-width="3" stroke-miterlimit="10" d="M127.5,166.2H5.5c-2.2,0-4-1.8-4-4V5.5
	c0-2.2,1.8-4,4-4h103.6l22.4,18v142.7C131.5,164.4,129.7,166.2,127.5,166.2z"/>
<path fill="none" stroke="#0093C1" stroke-width="3" stroke-miterlimit="10" d="M109.1,1.5v15.1c0,1.7,1.3,3,3,3h19.4"/>
<line fill="none" stroke="#0093C1" stroke-width="3" stroke-linecap="round" stroke-miterlimit="10" x1="31.1" y1="100.2" x2="44.9" y2="100.2"/>
<line fill="none" stroke="#0093C1" stroke-width="3" stroke-linecap="round" stroke-miterlimit="10" x1="79.8" y1="122.7" x2="45.9" y2="122.7"/>
<line fill="none" stroke="#0093C1" stroke-width="3" stroke-linecap="round" stroke-miterlimit="10" x1="101.3" y1="111.5" x2="69.5" y2="111.5"/>
<line fill="none" stroke="#0093C1" stroke-width="3" stroke-linecap="round" stroke-miterlimit="10" x1="61.9" y1="111.5" x2="31.1" y2="111.5"/>
<line fill="none" stroke="#0093C1" stroke-width="3" stroke-linecap="round" stroke-miterlimit="10" x1="31.1" y1="132.4" x2="74.7" y2="132.4"/>
<line fill="none" stroke="#0093C1" stroke-width="3" stroke-linecap="round" stroke-miterlimit="10" x1="101.3" y1="132.4" x2="85.4" y2="132.4"/>
<line fill="none" stroke="#0093C1" stroke-width="3" stroke-linecap="round" stroke-miterlimit="10" x1="101.3" y1="122.7" x2="85.5" y2="122.7"/>
<line fill="none" stroke="#0093C1" stroke-width="3" stroke-linecap="round" stroke-miterlimit="10" x1="101.3" y1="100.2" x2="78.8" y2="100.2"/>
<line fill="none" stroke="#0093C1" stroke-width="3" stroke-linecap="round" stroke-miterlimit="10" x1="69.5" y1="100.2" x2="52.8" y2="100.2"/>
<line fill="none" stroke="#0093C1" stroke-width="3" stroke-linecap="round" stroke-miterlimit="10" x1="31.1" y1="122.7" x2="40.5" y2="122.7"/>
<path fill="none" stroke="#0093C1" stroke-width="3" stroke-miterlimit="10" d="M38.6,40.9v38.6c0,1,0.8,1.9,1.9,1.9h48.8
	c1,0,1.9-0.8,1.9-1.9V40.9c0-0.5-0.2-1.1-0.7-1.4L66.1,18.8c-0.7-0.6-1.7-0.6-2.4,0L39.3,39.5C38.9,39.9,38.6,40.4,38.6,40.9z"/>
</svg>
