<?xml version="1.0" encoding="utf-8"?>
<!-- Generator: Adobe Illustrator 22.0.1, SVG Export Plug-In . SVG Version: 6.00 Build 0)  -->
<svg version="1.2" baseProfile="tiny" id="Layer_1" xmlns="http://www.w3.org/2000/svg" xmlns:xlink="http://www.w3.org/1999/xlink"
	 x="0px" y="0px" viewBox="0 0 59.1 59.1" xml:space="preserve">
<g>
	<polygon fill="#0093C1" points="21.9,5 39.7,5 52.4,17.6 57.3,15.5 41.8,0 19.9,0 	"/>
	<polygon fill="#0093C1" points="54.1,21.9 54.1,39.7 41.5,52.3 43.6,57.3 59.1,41.8 59.1,19.8 	"/>
	<polygon fill="#0093C1" points="5,37.2 5,19.4 17.6,6.7 15.6,1.7 0,17.3 0,39.3 	"/>
	<polygon fill="#0093C1" points="37.3,54.1 19.4,54.1 6.7,41.5 1.8,43.6 17.3,59.1 39.4,59.1 	"/>
	<polygon fill="none" stroke="#0093C1" stroke-width="4.607" stroke-miterlimit="10" points="18.5,39.3 18.5,25.1 29.3,14.5 
		40.7,25.1 40.7,39.3 	"/>
</g>
</svg>
