<?xml version="1.0" encoding="utf-8"?>
<!-- Generator: Adobe Illustrator 22.0.1, SVG Export Plug-In . SVG Version: 6.00 Build 0)  -->
<svg version="1.2" baseProfile="tiny" id="Layer_1" xmlns="http://www.w3.org/2000/svg" xmlns:xlink="http://www.w3.org/1999/xlink"
	 x="0px" y="0px" viewBox="0 0 133 167.7" xml:space="preserve">
<g>
	<path fill="none" stroke="#0093C1" stroke-width="3" stroke-miterlimit="10" d="M101.3,54.7c0,19.4-15.7,35.1-35.1,35.1
		c-19.4,0-35.1-15.7-35.1-35.1c0-19.4,15.7-35.1,35.1-35.1C85.5,19.6,101.3,35.3,101.3,54.7z"/>
	<path fill="none" stroke="#0093C1" stroke-width="3" stroke-miterlimit="10" d="M42.1,81.1c0-14.6,9.6-23.4,24.1-23.4
		c14.6,0,23.4,8.8,23.4,23.4"/>
	<path fill="#FFFFFF" d="M78.8,49.2c0,7.2-5.8,13-13,13c-7.2,0-13-5.8-13-13c0-7.2,5.8-13,13-13C73,36.2,78.8,42,78.8,49.2"/>
	<circle fill="none" stroke="#0093C1" stroke-width="3" stroke-miterlimit="10" cx="65.8" cy="49.2" r="13"/>
	<path fill="none" stroke="#0093C1" stroke-width="3" stroke-miterlimit="10" d="M127.5,166.2H5.5c-2.2,0-4-1.8-4-4V5.5
		c0-2.2,1.8-4,4-4h103.6l22.4,18v142.7C131.5,164.4,129.7,166.2,127.5,166.2z"/>
	<path fill="none" stroke="#0093C1" stroke-width="3" stroke-miterlimit="10" d="M109.1,1.5v15.1c0,1.7,1.3,3,3,3h19.4"/>
	
		<line fill="none" stroke="#0093C1" stroke-width="3" stroke-linecap="round" stroke-miterlimit="10" x1="31.1" y1="100.2" x2="44.9" y2="100.2"/>
	
		<line fill="none" stroke="#0093C1" stroke-width="3" stroke-linecap="round" stroke-miterlimit="10" x1="79.8" y1="122.7" x2="45.9" y2="122.7"/>
	
		<line fill="none" stroke="#0093C1" stroke-width="3" stroke-linecap="round" stroke-miterlimit="10" x1="101.3" y1="111.5" x2="69.5" y2="111.5"/>
	
		<line fill="none" stroke="#0093C1" stroke-width="3" stroke-linecap="round" stroke-miterlimit="10" x1="61.9" y1="111.5" x2="31.1" y2="111.5"/>
	
		<line fill="none" stroke="#0093C1" stroke-width="3" stroke-linecap="round" stroke-miterlimit="10" x1="31.1" y1="132.4" x2="74.7" y2="132.4"/>
	
		<line fill="none" stroke="#0093C1" stroke-width="3" stroke-linecap="round" stroke-miterlimit="10" x1="101.3" y1="132.4" x2="85.4" y2="132.4"/>
	
		<line fill="none" stroke="#0093C1" stroke-width="3" stroke-linecap="round" stroke-miterlimit="10" x1="101.3" y1="122.7" x2="85.5" y2="122.7"/>
	
		<line fill="none" stroke="#0093C1" stroke-width="3" stroke-linecap="round" stroke-miterlimit="10" x1="101.3" y1="100.2" x2="78.8" y2="100.2"/>
	
		<line fill="none" stroke="#0093C1" stroke-width="3" stroke-linecap="round" stroke-miterlimit="10" x1="69.5" y1="100.2" x2="52.8" y2="100.2"/>
	
		<line fill="none" stroke="#0093C1" stroke-width="3" stroke-linecap="round" stroke-miterlimit="10" x1="31.1" y1="122.7" x2="40.5" y2="122.7"/>
</g>
</svg>
