<?xml version="1.0" encoding="utf-8"?>
<!-- Generator: Adobe Illustrator 22.0.1, SVG Export Plug-In . SVG Version: 6.00 Build 0)  -->
<svg version="1.2" baseProfile="tiny" id="Layer_1" xmlns="http://www.w3.org/2000/svg" xmlns:xlink="http://www.w3.org/1999/xlink"
	 x="0px" y="0px" viewBox="0 0 358 53.5" xml:space="preserve">
<g>
	<polygon fill="#0093C1" points="19.9,4.5 36,4.5 47.4,15.9 51.9,14.1 37.9,0 18,0 	"/>
	<polygon fill="#0093C1" points="49,19.8 49,36 37.6,47.4 39.5,51.9 53.5,37.9 53.5,17.9 	"/>
	<polygon fill="#0093C1" points="4.5,33.7 4.5,17.5 16,6 14.1,1.6 0,15.7 0,35.6 	"/>
	<polygon fill="#0093C1" points="33.8,49 17.5,49 6.1,37.6 1.6,39.5 15.7,53.5 35.7,53.5 	"/>
	<polygon fill="none" stroke="#0093C1" stroke-width="3.484" stroke-miterlimit="10" points="16.8,35.6 16.8,22.8 26.5,13.2 
		36.9,22.8 36.9,35.6 	"/>
	<g>
		<path fill="#0093C1" d="M82.1,12.4c0-0.7,0.2-1.3,0.7-1.8c0.5-0.5,1.1-0.7,1.8-0.7c0.8,0,1.4,0.2,1.9,0.7s0.7,1.1,0.7,1.8
			c0,0.7-0.2,1.3-0.7,1.8s-1.1,0.7-1.9,0.7c-0.8,0-1.4-0.2-1.9-0.7C82.3,13.7,82.1,13.1,82.1,12.4z M82.7,37.5V17.9h3.9v19.5H82.7z"
			/>
		<path fill="#0093C1" d="M94.1,37.5V17.9h3.8v2.6h0.3c0.5-0.9,1.2-1.6,2.1-2.2s2.1-0.9,3.4-0.9c1.4,0,2.6,0.3,3.6,0.9
			s1.8,1.4,2.4,2.4h0.3c1.2-2.2,3.2-3.3,6-3.3c2.1,0,3.9,0.7,5.2,2c1.3,1.3,2,3.1,2,5.2v12.8h-3.9V26c0-1.6-0.4-2.8-1.1-3.6
			c-0.7-0.8-1.7-1.3-3-1.3c-1.3,0-2.3,0.4-3.2,1.3c-0.8,0.9-1.3,2.1-1.3,3.6v11.4h-3.9V25.5c0-1.3-0.4-2.4-1.2-3.2
			c-0.8-0.8-1.8-1.2-3-1.2s-2.3,0.5-3.1,1.4c-0.8,0.9-1.3,2.1-1.3,3.5v11.5H94.1z"/>
		<path fill="#0093C1" d="M130.5,37.5V17.9h3.8v2.6h0.3c0.5-0.9,1.2-1.6,2.1-2.2s2.1-0.9,3.4-0.9c1.4,0,2.6,0.3,3.6,0.9
			s1.8,1.4,2.4,2.4h0.3c1.2-2.2,3.2-3.3,6-3.3c2.1,0,3.9,0.7,5.2,2c1.3,1.3,2,3.1,2,5.2v12.8h-3.9V26c0-1.6-0.4-2.8-1.1-3.6
			c-0.7-0.8-1.7-1.3-3-1.3c-1.3,0-2.3,0.4-3.2,1.3c-0.8,0.9-1.3,2.1-1.3,3.6v11.4H143V25.5c0-1.3-0.4-2.4-1.2-3.2
			c-0.8-0.8-1.8-1.2-3-1.2s-2.3,0.5-3.1,1.4c-0.8,0.9-1.3,2.1-1.3,3.5v11.5H130.5z"/>
		<path fill="#0093C1" d="M165.5,27.7c0-1.9,0.4-3.7,1.3-5.2c0.9-1.6,2.1-2.8,3.7-3.7s3.4-1.3,5.3-1.3s3.7,0.4,5.3,1.3
			c1.6,0.9,2.8,2.1,3.7,3.7c0.9,1.6,1.3,3.3,1.3,5.2s-0.4,3.7-1.3,5.2c-0.9,1.6-2.1,2.8-3.7,3.7s-3.4,1.3-5.3,1.3
			c-3,0-5.5-1-7.4-2.9S165.5,30.6,165.5,27.7z M169.5,27.7c0,2,0.6,3.6,1.8,4.8c1.2,1.3,2.7,1.9,4.5,1.9c1.8,0,3.4-0.6,4.5-1.9
			c1.2-1.3,1.8-2.9,1.8-4.8c0-2-0.6-3.6-1.8-4.8c-1.2-1.3-2.7-1.9-4.5-1.9c-1.8,0-3.4,0.6-4.5,1.9C170.1,24.1,169.5,25.7,169.5,27.7
			z"/>
		<path fill="#0093C1" d="M192.7,37.5v-28h3.9v11.3h0.2c0.2-0.3,0.5-0.6,0.8-1c0.3-0.3,0.7-0.7,1.3-1.1c0.5-0.4,1.2-0.7,1.9-0.9
			c0.8-0.2,1.6-0.4,2.5-0.4c2.7,0,4.9,1,6.7,2.9c1.7,1.9,2.6,4.4,2.6,7.4c0,3-0.9,5.5-2.6,7.4c-1.8,1.9-4.1,2.8-6.9,2.8
			c-2.6,0-4.7-1.1-6.3-3.3h-0.3v2.8H192.7z M196.5,27.7c0,1.9,0.5,3.5,1.6,4.8s2.5,1.9,4.4,1.9s3.3-0.6,4.4-1.8s1.7-2.8,1.7-4.9
			c0-2-0.6-3.6-1.7-4.8s-2.5-1.9-4.3-1.9c-1.8,0-3.2,0.6-4.3,1.8C197.1,24,196.5,25.6,196.5,27.7z"/>
		<path fill="#0093C1" d="M218.8,30.5V17.9h3.9v11.8c0,1.4,0.4,2.5,1.2,3.3s1.9,1.3,3.1,1.3c1.4,0,2.5-0.5,3.4-1.4
			c0.9-0.9,1.3-2.1,1.3-3.5V17.9h3.9v19.5H232v-2.6h-0.3c-0.4,0.9-1.1,1.6-2.1,2.2c-1,0.6-2.2,0.9-3.6,0.9c-2.2,0-3.9-0.7-5.2-2.1
			C219.5,34.4,218.8,32.6,218.8,30.5z"/>
		<path fill="#0093C1" d="M241.3,17.9h4.3l5.4,15.1h0.3l5.4-15.1h4.3l-9,23.4c-0.6,1.6-1.4,2.7-2.4,3.5c-1,0.8-2.3,1.2-4,1.2h-2.2
			v-3.5h1.7c1.7,0,2.8-0.8,3.4-2.4l0.7-1.9L241.3,17.9z"/>
		<path fill="#0093C1" d="M264.1,37.2c-0.5-0.5-0.8-1.1-0.8-1.7c0-0.7,0.3-1.3,0.8-1.8s1.1-0.7,1.8-0.7c0.7,0,1.3,0.2,1.8,0.7
			c0.5,0.5,0.7,1.1,0.7,1.8c0,0.7-0.2,1.3-0.7,1.8c-0.5,0.5-1.1,0.7-1.8,0.7C265.2,37.9,264.6,37.7,264.1,37.2z"/>
		<path fill="#0093C1" d="M274.4,27.7c0-1.9,0.4-3.6,1.3-5.2c0.9-1.6,2.1-2.8,3.6-3.7c1.5-0.9,3.3-1.4,5.2-1.4c2.3,0,4.4,0.7,6.2,2
			c1.8,1.3,2.9,3.1,3.3,5.3h-4c-0.3-1.1-1-2-2-2.7c-1-0.7-2.1-1-3.4-1c-1.8,0-3.3,0.6-4.4,1.9c-1.1,1.3-1.7,2.9-1.7,4.8
			c0,1.9,0.6,3.5,1.7,4.8c1.2,1.3,2.6,1.9,4.5,1.9c1.3,0,2.4-0.3,3.4-1c1-0.7,1.6-1.6,2-2.7h4c-0.4,2.2-1.5,4-3.3,5.3s-3.8,2-6.1,2
			c-1.5,0-2.9-0.3-4.1-0.8c-1.3-0.5-2.3-1.3-3.2-2.2c-0.9-0.9-1.6-2-2.1-3.3C274.7,30.4,274.4,29.1,274.4,27.7z"/>
		<path fill="#0093C1" d="M299.3,27.7c0-1.9,0.4-3.7,1.3-5.2c0.9-1.6,2.1-2.8,3.7-3.7s3.4-1.3,5.3-1.3s3.7,0.4,5.3,1.3
			c1.6,0.9,2.8,2.1,3.7,3.7c0.9,1.6,1.3,3.3,1.3,5.2s-0.4,3.7-1.3,5.2c-0.9,1.6-2.1,2.8-3.7,3.7s-3.4,1.3-5.3,1.3
			c-3,0-5.5-1-7.4-2.9C300.2,33.1,299.3,30.6,299.3,27.7z M303.3,27.7c0,2,0.6,3.6,1.8,4.8c1.2,1.3,2.7,1.9,4.5,1.9
			c1.8,0,3.4-0.6,4.5-1.9c1.2-1.3,1.8-2.9,1.8-4.8c0-2-0.6-3.6-1.8-4.8s-2.7-1.9-4.5-1.9c-1.8,0-3.4,0.6-4.5,1.9
			S303.3,25.7,303.3,27.7z"/>
		<path fill="#0093C1" d="M326.5,37.5V17.9h3.8v2.6h0.3c0.5-0.9,1.2-1.6,2.1-2.2s2.1-0.9,3.4-0.9c1.4,0,2.6,0.3,3.6,0.9
			s1.8,1.4,2.4,2.4h0.3c1.2-2.2,3.2-3.3,6-3.3c2.1,0,3.9,0.7,5.2,2c1.3,1.3,2,3.1,2,5.2v12.8h-3.9V26c0-1.6-0.4-2.8-1.1-3.6
			c-0.7-0.8-1.7-1.3-3-1.3c-1.3,0-2.3,0.4-3.2,1.3c-0.8,0.9-1.3,2.1-1.3,3.6v11.4H339V25.5c0-1.3-0.4-2.4-1.2-3.2
			c-0.8-0.8-1.8-1.2-3-1.2s-2.3,0.5-3.1,1.4c-0.8,0.9-1.3,2.1-1.3,3.5v11.5H326.5z"/>
	</g>
</g>
</svg>
